<svg width="1100" height="1100" viewBox="0 0 1100 1100" fill="none" xmlns="http://www.w3.org/2000/svg">
<g clip-path="url(#clip0_38_653)">
<path d="M1271.11 461.392C1410.14 484.305 1368.89 1188.61 1141.25 1321.53C913.611 1454.45 351.389 1432.36 351.389 1257.36C351.389 1082.36 565.278 994.582 727.222 935C889.166 875.418 899.559 701.213 971.666 624.862C1049.58 542.36 1132.08 438.479 1271.11 461.392Z" fill="#D9D9D9"/>
<path fill-rule="evenodd" clip-rule="evenodd" d="M506.509 903.003L294.949 705.766L-35.4726 1060.55L-62.3047 1035.56L172.815 783.105L86.2129 702.998L-41.5683 840.534L-68.4306 815.577L154.899 575.199L-56.1725 378.419L-56.8677 379.165L-83.6934 354.168L292.14 -49.165L318.966 -24.1684L117.75 191.77L219.745 286.479L411.891 79.3218L425.332 91.7893L233.179 298.954L328.939 387.874L592.609 104.076L403.07 -72.1286L428.035 -98.9833L617.566 77.2137L732.125 -46.09L758.987 -21.1328L644.421 102.179L741.31 192.252L934.398 -15.4086L947.824 -2.92467L754.738 204.735L962.93 398.281L1288.24 48.6228L1315.09 73.5988L989.785 423.246L1036.09 466.294C1043.51 473.188 1043.93 484.789 1037.04 492.205C1030.14 499.62 1018.54 500.043 1011.13 493.149L964.809 450.091L868.833 553.249C868.39 554.705 867.834 556.52 867.169 558.664C865.275 564.765 862.492 573.536 858.916 584.288C851.769 605.777 841.428 635.256 828.655 667.19C803.516 730.038 767.606 805.96 726.436 847.13C685.77 887.796 639.312 900.06 596.537 911.351L596.406 911.385C594.847 911.797 593.293 912.207 591.745 912.617C547.307 924.392 505.755 936.422 466.714 975.463L251.297 1190.88L225.37 1164.95L440.787 949.536C462.216 928.107 484.41 913.591 506.509 903.003ZM937.954 425.126L729.77 231.587L638.989 329.219L847.001 522.885L937.954 425.126ZM829.383 556.581L799.087 528.375L501.609 848.304L544.166 887.979L543.959 888.201C557.031 883.934 569.891 880.476 582.354 877.174L584.817 876.521C629.055 864.808 666.932 854.78 700.509 821.203C735.728 785.984 769.333 716.767 794.61 653.573C807.045 622.486 817.138 593.719 824.123 572.717C826.145 566.637 827.905 561.214 829.383 556.581ZM785.669 515.882L617.561 359.367L395.073 598.26L564.359 753.894L785.669 515.882ZM625.571 316.727L716.342 219.104L619.464 129.041L528.798 226.628L625.571 316.727ZM503.841 253.49L590.724 334.382L524.745 405.226L438.587 323.725L503.841 253.49ZM426.108 337.157L512.25 418.643L360.578 581.498L273.648 501.255L426.108 337.157ZM261.169 514.687L348.083 594.914L293.119 653.931L206.675 573.34L261.169 514.687ZM181.718 600.203L268.129 680.763L197.805 756.273L111.17 676.136L181.718 600.203ZM382.578 611.676L319.938 678.934L488.199 835.802L551.875 767.321L382.578 611.676ZM316.46 401.305L179.856 548.337L33.5742 411.959L170.061 265.363L316.46 401.305ZM156.626 252.888L20.1646 399.458L-31.1759 351.593L105.252 205.183L156.626 252.888Z" fill="white"/>
</g>
<defs>
<clipPath id="clip0_38_653">
<rect width="1100" height="1100" fill="white"/>
</clipPath>
</defs>
</svg>
